# xmcd
#
# Track frame offsets:
#  150
#  22460
#  37837
#  55173
#  61852
#  85789
#  104105
#  118838
#  145870
#  174732
#  198946
#  220458
#  226074
#  244633
#  253996
#  276950
#  308928
#
# Disc length: 4145 seconds
#
# Revision: 0
# Processed by: cddbd v1.5.1PL2 Copyright (c) Steve Scherf et al.
# Submitted via: Collectorz.com_Music_Collector 6.10
#
DISCID=fe102f11
DTITLE=Bruce Springsteen - The Hitter In Syracuse [CD2)
DYEAR=1996
DGENRE=Acoustic
TTITLE0=The Ghost Of Tom Joad
TTITLE1=Intro
TTITLE2=Sinaloa Cowboys
TTITLE3=Intro
TTITLE4=The Line
TTITLE5=Intro
TTITLE6=Balboa Park
TTITLE7=Intro
TTITLE8=Across The Border
TTITLE9=Bobby Jean
TTITLE10=This Hard Land
TTITLE11=Intro To
TTITLE12=There'll Never Be Any Other For Me But You
TTITLE13=Intro
TTITLE14=Galveston Bay
TTITLE15=Promised Land
TTITLE16=Thank You Broooce!!
EXTD=
EXTT0=
EXTT1=
EXTT2=
EXTT3=
EXTT4=
EXTT5=
EXTT6=
EXTT7=
EXTT8=
EXTT9=
EXTT10=
EXTT11=
EXTT12=
EXTT13=
EXTT14=
EXTT15=
EXTT16=
PLAYORDER=
